<?xml version="1.0" standalone="no"?><!DOCTYPE svg PUBLIC "-//W3C//DTD SVG 1.1//EN" "http://www.w3.org/Graphics/SVG/1.1/DTD/svg11.dtd"><svg t="1513511577415" class="icon" style="" viewBox="0 0 1024 1024" version="1.1" xmlns="http://www.w3.org/2000/svg" p-id="1724" xmlns:xlink="http://www.w3.org/1999/xlink" width="200" height="200"><defs><style type="text/css"></style></defs><path d="M632.046097 545.58184c-10.5421 0-19.086707 8.54563-19.086707 19.086707l-0.021489 0c0 57.983599-47.004547 104.988146-104.987123 104.988146-57.863872 0-104.788601-46.813189-104.980983-104.632035 0.001023-0.119727 0.017396-0.236384 0.017396-0.356111 0-10.541077-8.544607-19.086707-19.087731-19.086707s-19.088754 8.54563-19.088754 19.086707c0 79.0678 64.095807 143.162584 143.162584 143.162584s143.162584-64.095807 143.162584-143.162584C651.134851 554.12747 642.589221 545.58184 632.046097 545.58184L632.046097 545.58184z" p-id="1725" fill="#ffffff"></path><path d="M959.050756 516.850471c0-36.489052-24.093744-67.343781-57.236586-77.54205C872.567056 249.414513 708.451254 104.009865 510.369873 104.009865S148.171668 249.414513 118.925576 439.308421c-33.142841 10.19827-57.236586 41.054021-57.236586 77.54205 0 39.655162 28.464285 72.623018 66.065671 79.687924 0.177032 0.038886 0.356111 0.070608 0.534166 0.103354 0.254803 0.046049 0.50449 0.103354 0.75827 0.147356-0.00307-0.010233-0.005117-0.020466-0.00921-0.031722 0.908696 0.132006 1.829671 0.224104 2.775206 0.224104 17.865903 0 28.039613-8.688893 28.039613-22.518876 0-1.094938-0.112564-2.160199-0.289596-3.203972-0.084934-0.419556-0.172939-0.838088-0.255827-1.255597-4.481058-22.60995-6.843872-45.983287-6.843872-69.910233 0-197.666942 160.240541-357.905436 357.905436-357.905436s357.905436 160.239518 357.905436 357.905436c0 148.093896-89.952708 275.162944-218.197534 329.591577-6.362918-4.746094-14.253632-7.557116-22.803355-7.557116-21.084201 0-38.176484 17.092283-38.176484 38.177508 0 21.085224 17.092283 38.176484 38.176484 38.176484 19.578917 0 35.706223-14.739702 37.911448-33.727149 113.115244-48.084135 199.280696-147.246599 229.518371-268.547269C931.452187 588.473719 959.050756 555.900859 959.050756 516.850471L959.050756 516.850471zM99.841939 516.850471c0-12.921287 5.719258-24.493857 14.748912-32.367175-0.200568 5.177929-0.303922 10.380418-0.303922 15.608489 0 17.472953 1.146103 34.676777 3.346211 51.551096C106.860796 543.840172 99.841939 531.171642 99.841939 516.850471L99.841939 516.850471zM131.038452 558.057989c0.345877-0.205685 0.695848-0.403183 1.056052-0.586354C131.7343 557.655829 131.383306 557.853327 131.038452 558.057989L131.038452 558.057989zM129.703037 558.924729c0.344854-0.245593 0.699941-0.476861 1.062192-0.698918C130.404002 558.447868 130.047892 558.677089 129.703037 558.924729L129.703037 558.924729zM139.000797 555.462884c-0.201591 0.01842-0.398066 0.047072-0.597611 0.072655C138.602731 555.509956 138.799206 555.48028 139.000797 555.462884L139.000797 555.462884zM137.295969 555.703361c-0.240477 0.045025-0.479931 0.092098-0.716314 0.145309C136.816039 555.794435 137.054469 555.748387 137.295969 555.703361L137.295969 555.703361zM135.668912 556.083008c-0.261966 0.072655-0.525979 0.13917-0.782829 0.223081C135.142933 556.222177 135.405923 556.154639 135.668912 556.083008L135.668912 556.083008zM134.360104 556.49847c-0.664126 0.239454-1.311879 0.508583-1.940189 0.815575C133.049249 557.007053 133.694955 556.734854 134.360104 556.49847L134.360104 556.49847zM903.108652 551.639812c2.193968-16.873296 3.344165-34.07712 3.344165-51.547003 0-5.228071-0.103354-10.431583-0.303922-15.609513 9.030677 7.873318 14.749936 19.445888 14.749936 32.368198C920.898831 531.170618 913.879973 543.837102 903.108652 551.639812L903.108652 551.639812z" p-id="1726" fill="#ffffff"></path><path d="M815.782771 500.092809c0-168.675654-136.738267-305.413921-305.412898-305.413921-168.675654 0-305.413921 136.738267-305.413921 305.413921 0 168.674631 136.739291 305.411875 305.413921 305.411875S815.782771 668.768463 815.782771 500.092809L815.782771 500.092809zM510.34736 767.329223c-147.59043 0-267.236414-119.645984-267.236414-267.236414 0-147.591453 119.647007-267.236414 267.236414-267.236414 147.59043 0 267.23539 119.645984 267.23539 267.236414C777.582751 647.682215 657.93779 767.329223 510.34736 767.329223L510.34736 767.329223z" p-id="1727" fill="#ffffff"></path><path d="M383.898437 419.240363 383.898437 419.240363zM345.720929 419.240363 345.720929 419.240363z" p-id="1728" fill="#ffffff"></path><path d="M627.27442 419.240363 627.27442 419.240363zM589.096912 419.240363 589.096912 419.240363z" p-id="1729" fill="#ffffff"></path></svg>