<?xml version="1.0" standalone="no"?><!DOCTYPE svg PUBLIC "-//W3C//DTD SVG 1.1//EN" "http://www.w3.org/Graphics/SVG/1.1/DTD/svg11.dtd"><svg t="1512194185858" class="icon" style="" viewBox="0 0 1365 1024" version="1.1" xmlns="http://www.w3.org/2000/svg" p-id="2852" xmlns:xlink="http://www.w3.org/1999/xlink" width="266.6015625" height="200"><defs><style type="text/css"></style></defs><path d="M1167.36 847.146667H197.973333c-54.826667 0-99.413333-44.8-99.413333-99.413334v-627.2c0-54.826667 44.8-99.413333 99.413333-99.413333h969.6c54.826667 0 99.413333 44.373333 99.413334 99.413333v627.413334c-0.213333 54.613333-45.013333 99.2-99.626667 99.2zM197.973333 64.213333c-31.146667 0-56.32 25.386667-56.32 56.32v627.413334c0 31.146667 25.386667 56.32 56.32 56.32h969.6c31.146667 0 56.32-25.386667 56.32-56.32V120.533333c0-31.146667-24.96-56.32-56.32-56.32H197.973333zM1227.946667 1002.453333H137.173333c-11.946667 0-21.333333-9.6-21.333333-21.76s9.6-21.76 21.333333-21.76h1090.773334c11.733333 0 21.76 9.6 21.76 21.76s-9.6 21.76-21.76 21.76z" fill="#e6e6e6" p-id="2853"></path><path d="M1035.733333 329.813333L878.933333 181.973333c-1.066667-1.066667-1.706667-1.28-2.986666-1.92-1.706667-1.92-3.413333-4.053333-6.4-4.906666-2.346667-1.066667-4.906667-1.066667-7.04-0.426667-1.28-0.426667-2.773333-0.426667-4.266667-0.426667H506.88c-1.28 0-2.986667 0.426667-4.266667 0.426667-2.346667-0.426667-4.906667-0.426667-7.04 0.426667-2.773333 1.066667-4.693333 2.986667-6.4 4.906666-1.066667 0.64-1.92 1.28-2.986666 1.92l-156.8 147.84c-11.946667 11.306667-12.586667 29.44-1.92 41.386667l332.8 372.906667c5.76 6.4 13.653333 10.026667 21.973333 10.026666s16.64-3.626667 21.973333-10.026666L1036.373333 371.2c11.733333-11.946667 11.093333-30.08-0.64-41.386667zM494.933333 213.973333l45.013334 119.253334h-171.52l126.506666-119.253334z m71.466667 107.52L521.386667 202.666667h133.12l-88.106667 118.826666z m116.48-108.8l88.533333 120.533334h-177.493333l88.96-120.533334z m-131.413333 148.906667l8.746666 28.8c1.706667 6.4 7.68 10.453333 13.653334 10.453333 1.28 0 2.986667-0.426667 4.266666-0.64 7.68-2.346667 11.733333-10.453333 9.6-17.92l-6.4-20.693333h202.88L682.666667 688.426667l-77.866667-248.746667c-2.346667-7.68-10.453333-11.733333-17.92-9.6-7.68 2.346667-11.733333 10.453333-9.6 17.92l76.16 244.266667-294.4-330.88h192.426667v0.213333z m263.04 0h193.28l-296.533334 332.373333 103.253334-332.373333z m10.666666-28.8l25.386667-67.413333c2.986667-7.253333-1.066667-15.786667-8.32-18.346667-7.253333-2.773333-15.786667 1.066667-18.346667 8.32l-24.96 66.133333-87.04-118.4 132.266667 0.426667-6.613333 17.28c-2.986667 7.253333 1.066667 15.786667 8.32 18.773333 1.706667 0.64 3.413333 1.066667 4.906666 1.066667 5.973333 0 11.306667-3.626667 13.44-9.386667l6.4-16.64 125.44 119.253334-170.88-1.066667z" fill="#e6e6e6" p-id="2854"></path></svg>