<?xml version="1.0" standalone="no"?><!DOCTYPE svg PUBLIC "-//W3C//DTD SVG 1.1//EN" "http://www.w3.org/Graphics/SVG/1.1/DTD/svg11.dtd"><svg t="1513517302141" class="icon" style="" viewBox="0 0 1024 1024" version="1.1" xmlns="http://www.w3.org/2000/svg" p-id="1895" xmlns:xlink="http://www.w3.org/1999/xlink" width="200" height="200"><defs><style type="text/css"></style></defs><path d="M1018.88 394.24s2.56-2.56 0 0c2.56-5.12 2.56-7.68 2.56-10.24v-12.8c0-2.56 0-5.12-2.56-7.68v-2.56L916.48 81.92c-5.12-15.36-20.48-25.6-35.84-25.6H133.12c-15.36 0-30.72 10.24-35.84 25.6L2.56 363.52V384c0 2.56 2.56 5.12 2.56 7.68v2.56c0 2.56 2.56 5.12 2.56 5.12v2.56l478.72 550.4c7.68 7.68 17.92 12.8 28.16 12.8 10.24 0 23.04-5.12 28.16-12.8l471.04-550.4c2.56-5.12 5.12-5.12 5.12-7.68z m-765.44 20.48L396.8 729.6 122.88 414.72h130.56z m337.92-279.04l99.84 202.24H337.92l102.4-202.24h151.04z m110.08 279.04L517.12 814.08 335.36 414.72h366.08z m84.48 0h115.2l-253.44 294.4 138.24-294.4z m143.36-76.8h-153.6l-99.84-202.24h179.2l74.24 202.24z m-768-202.24h192l-102.4 202.24H92.16l69.12-202.24z" p-id="1896" fill="#707070"></path></svg>